<svg width="225" height="200" viewBox="0 0 225 200" fill="none" xmlns="http://www.w3.org/2000/svg">
<path d="M173.205 5.62259L60.981 0L0 94.3772L51.2429 194.377L163.467 200L224.448 105.622L173.205 5.62259ZM164.664 18.8413L205.14 97.8311L116.495 93.39L76.0181 14.4006L164.664 18.8413ZM15.7188 95.1641L63.8878 20.6163L104.365 99.6061L56.1952 174.155L15.7188 95.1641ZM156.289 185.993L67.6434 181.552L115.812 107.003L204.458 111.444L156.289 185.993Z" fill="black"/>
<path d="M142.441 62.2514C146.833 62.2514 150.393 58.6911 150.393 54.2993C150.393 49.9074 146.833 46.3472 142.441 46.3472C138.049 46.3472 134.489 49.9074 134.489 54.2993C134.489 58.6911 138.049 62.2514 142.441 62.2514Z" fill="#7D1538"/>
<path d="M106.622 171.819C111.013 171.819 114.574 168.258 114.574 163.867C114.574 159.475 111.013 155.914 106.622 155.914C102.23 155.914 98.6694 159.475 98.6694 163.867C98.6694 168.258 102.23 171.819 106.622 171.819Z" fill="#EB8A90"/>
<path d="M164.474 139.712C168.865 139.712 172.426 136.152 172.426 131.76C172.426 127.368 168.865 123.808 164.474 123.808C160.082 123.808 156.521 127.368 156.521 131.76C156.521 136.152 160.082 139.712 164.474 139.712Z" fill="#F5D491"/>
<path d="M60.2807 71.7554C64.6726 71.7554 68.2328 68.1952 68.2328 63.8033C68.2328 59.4115 64.6726 55.8512 60.2807 55.8512C55.8889 55.8512 52.3286 59.4115 52.3286 63.8033C52.3286 68.1952 55.8889 71.7554 60.2807 71.7554Z" fill="#2D82B7"/>
<path d="M38.3974 105.238C42.7893 105.238 46.3495 101.678 46.3495 97.2862C46.3495 92.8944 42.7893 89.3341 38.3974 89.3341C34.0056 89.3341 30.4453 92.8944 30.4453 97.2862C30.4453 101.678 34.0056 105.238 38.3974 105.238Z" fill="#07004D"/>
<path d="M78.605 107.965C82.9968 107.965 86.5571 104.405 86.5571 100.013C86.5571 95.6212 82.9968 92.0609 78.605 92.0609C74.2131 92.0609 70.6528 95.6212 70.6528 100.013C70.6528 104.405 74.2131 107.965 78.605 107.965Z" fill="black"/>
<path d="M57.4052 139.712C61.7971 139.712 65.3574 136.152 65.3574 131.76C65.3574 127.368 61.7971 123.808 57.4052 123.808C53.0134 123.808 49.4531 127.368 49.4531 131.76C49.4531 136.152 53.0134 139.712 57.4052 139.712Z" fill="#42E2B8"/>
</svg>
