<svg width="3443" height="464" viewBox="0 0 3443 464" fill="none" xmlns="http://www.w3.org/2000/svg">
<path d="M712.904 114.64L676.616 322H624.488L637.736 247.12H581.576L568.616 322H516.488L553.064 114.64H604.904L589.352 202.192H645.512L661.064 114.64H712.904ZM805.716 114.64L769.428 322H717.3L753.876 114.64H805.716ZM882.401 326.032C855.137 326.032 836.321 319.696 825.953 307.024C818.849 298.192 815.297 286.096 815.297 270.736C815.297 263.632 816.065 255.856 817.601 247.408L827.681 189.808C836.705 138.352 868.193 112.624 922.145 112.624C944.417 112.624 961.313 117.424 972.833 127.024C984.353 136.432 990.113 149.392 990.113 165.904C990.113 172.624 989.153 179.44 987.233 186.352C985.505 193.264 983.777 198.448 982.049 201.904L979.169 207.088H928.193C933.185 200.176 935.681 192.208 935.681 183.184C935.681 165.904 928.481 157.264 914.081 157.264C894.689 157.264 883.073 168.496 879.233 190.96L869.441 246.256C868.481 251.44 868.001 256.528 868.001 261.52C868.001 274.768 875.777 281.392 891.329 281.392C907.073 281.392 917.153 273.52 921.569 257.776H897.953L903.713 225.808H980.033L975.425 250.576L973.985 258.928C965.921 303.664 935.393 326.032 882.401 326.032ZM1193.56 114.64L1157.27 322H1105.14L1118.39 247.12H1062.23L1049.27 322H997.144L1033.72 114.64H1085.56L1070.01 202.192H1126.17L1141.72 114.64H1193.56ZM1379.46 112.624C1425.93 112.624 1449.16 130.672 1449.16 166.768C1449.16 172.528 1448.58 178.768 1447.43 185.488L1435.62 251.728C1431.78 274 1423.82 291.184 1411.72 303.28C1399.82 315.184 1383.11 322.384 1361.61 324.88C1363.72 331.792 1368.81 337.264 1376.87 341.296C1385.13 345.52 1395.78 347.632 1408.84 347.632L1407.4 388.528C1392.81 388.528 1379.94 386.896 1368.81 383.632C1357.86 380.368 1349.32 376.336 1343.18 371.536C1337.22 366.928 1332.33 361.456 1328.49 355.12C1322.73 345.328 1319.66 335.056 1319.27 324.304C1287.59 319.504 1271.75 302.128 1271.75 272.176C1271.75 265.84 1272.42 259.024 1273.77 251.728L1285.58 185.488C1294.22 136.912 1325.51 112.624 1379.46 112.624ZM1349.51 281.392C1359.11 281.392 1366.79 278.992 1372.55 274.192C1378.31 269.392 1382.34 260.56 1384.65 247.696L1395.02 189.52C1395.59 185.872 1395.88 182.608 1395.88 179.728C1395.88 164.752 1387.82 157.264 1371.69 157.264C1351.91 157.648 1340.2 168.4 1336.55 189.52L1326.47 247.696C1325.7 252.304 1325.32 257.104 1325.32 262.096C1325.32 274.96 1333.38 281.392 1349.51 281.392ZM1602.09 307.024C1586.92 319.696 1565.41 326.032 1537.57 326.032C1509.73 326.032 1490.44 319.6 1479.69 306.736C1472.01 297.904 1468.17 285.712 1468.17 270.16C1468.17 263.248 1468.93 255.664 1470.47 247.408L1493.8 114.64H1545.64L1522.31 246.256C1521.54 251.056 1521.16 256.048 1521.16 261.232C1521.16 274.672 1529.22 281.392 1545.35 281.392C1554.95 281.392 1562.63 278.896 1568.39 273.904C1574.15 268.912 1578.18 259.696 1580.49 246.256L1603.81 114.64H1655.65L1632.33 247.408C1627.53 274.288 1617.45 294.16 1602.09 307.024ZM1760.89 322L1762.62 276.784H1714.52L1700.41 322H1645.4L1719.42 114.64H1814.46L1815.61 322H1760.89ZM1749.08 165.04L1726.33 238.192H1764.06L1767.23 165.04H1749.08ZM1974.19 322H1842.86L1879.44 114.64H1931.28L1902.77 277.072H1982.25L1974.19 322ZM2085.68 114.64L2049.4 322H1997.27L2033.84 114.64H2085.68ZM2295.43 159.568H2224.58L2196.07 322H2143.94L2172.45 159.568H2101.31L2109.38 114.64H2303.49L2295.43 159.568ZM2390.84 187.504L2439.51 114.64H2491.35L2402.64 242.224L2388.53 322H2336.4L2350.52 242.224L2306.74 114.64H2361.75L2384.21 187.504H2390.84ZM2665.24 114.64C2687.13 114.64 2702.68 119.44 2711.9 129.04C2718.81 136.336 2722.26 145.552 2722.26 156.688C2722.26 160.528 2721.88 164.56 2721.11 168.784L2718.52 182.608C2716.41 193.552 2712.28 202.096 2706.14 208.24C2700.18 214.384 2694.9 217.456 2690.3 217.456L2690.01 219.76C2695.38 219.76 2700.86 222.736 2706.42 228.688C2711.99 234.64 2714.78 241.648 2714.78 249.712C2714.78 252.976 2714.39 256.432 2713.62 260.08L2711.9 269.008C2708.82 285.52 2701.43 298.48 2689.72 307.888C2678.2 317.296 2662.07 322 2641.34 322H2545.14L2581.72 114.64H2665.24ZM2639.32 237.328H2611.96L2605.05 277.072H2632.41C2632.79 277.072 2633.18 277.072 2633.56 277.072C2642.39 277.072 2649.4 275.056 2654.58 271.024C2659.77 266.8 2662.36 261.712 2662.36 255.76C2662.36 243.472 2654.68 237.328 2639.32 237.328ZM2647.1 159.568H2625.5L2618.01 202.48H2639.32C2657.75 202.48 2666.97 194.416 2666.97 178.288C2666.97 172.72 2665.24 168.208 2661.78 164.752C2658.52 161.296 2653.62 159.568 2647.1 159.568ZM2879 322H2734.43L2771 114.64H2915.58L2907.51 159.568H2814.78L2808.15 198.448H2884.76L2876.7 243.376H2800.09L2794.33 277.072H2887.07L2879 322ZM3117.52 159.568H3046.67L3018.16 322H2966.03L2994.54 159.568H2923.41L2931.47 114.64H3125.58L3117.52 159.568ZM3167.71 262.96C3167.71 276.208 3177.22 282.832 3196.23 282.832C3215.43 282.832 3225.03 276.88 3225.03 264.976C3225.03 258.64 3221.76 253.456 3215.23 249.424C3208.71 245.392 3200.74 242.032 3191.33 239.344C3182.11 236.656 3172.8 233.584 3163.39 230.128C3154.18 226.48 3146.31 220.912 3139.78 213.424C3133.25 205.744 3129.99 196.24 3129.99 184.912C3129.99 136.72 3160.99 112.624 3223.01 112.624C3245.67 112.624 3262.75 116.944 3274.27 125.584C3285.99 134.032 3291.84 145.84 3291.84 161.008C3291.84 166.576 3291.07 171.952 3289.54 177.136C3288.19 182.128 3286.75 185.68 3285.22 187.792L3282.91 191.248H3231.94C3236.16 186.832 3238.27 181.264 3238.27 174.544C3238.27 162.064 3230.11 155.824 3213.79 155.824C3193.25 155.824 3182.98 162.352 3182.98 175.408C3182.98 181.936 3186.24 187.12 3192.77 190.96C3199.3 194.8 3207.17 197.872 3216.39 200.176C3225.79 202.288 3235.2 204.976 3244.61 208.24C3254.02 211.504 3261.99 216.976 3268.51 224.656C3275.04 232.144 3278.31 241.936 3278.31 254.032C3278.31 278.416 3271.01 296.56 3256.42 308.464C3241.83 320.176 3219.36 326.032 3189.03 326.032C3158.69 326.032 3137.95 320.656 3126.82 309.904C3118.56 301.84 3114.43 290.704 3114.43 276.496C3114.43 271.12 3115.01 265.264 3116.16 258.928L3117.03 254.32H3168.87L3168.29 257.776C3167.91 259.696 3167.71 261.424 3167.71 262.96Z" fill="black"/>
<path d="M511.016 350.8H3293.86V365.2H511.016V350.8Z" fill="black"/>
<path d="M389.328 32.8918L151.975 21L23 220.608L131.379 432.108L368.732 444L497.707 244.391L389.328 32.8918ZM371.263 60.8494L456.872 227.913L269.386 218.52L183.778 51.4573L371.263 60.8494ZM56.2452 222.272L158.123 64.6035L243.731 231.667L141.853 389.337L56.2452 222.272ZM353.552 414.375L166.066 404.982L267.943 247.312L455.429 256.705L353.552 414.375Z" fill="black"/>
<path d="M324.264 152.662C333.553 152.662 341.083 145.132 341.083 135.843C341.083 126.555 333.553 119.025 324.264 119.025C314.975 119.025 307.445 126.555 307.445 135.843C307.445 145.132 314.975 152.662 324.264 152.662Z" fill="#7D1538"/>
<path d="M248.504 384.397C257.793 384.397 265.323 376.867 265.323 367.578C265.323 358.289 257.793 350.759 248.504 350.759C239.216 350.759 231.686 358.289 231.686 367.578C231.686 376.867 239.216 384.397 248.504 384.397Z" fill="#EB8A90"/>
<path d="M370.863 316.491C380.152 316.491 387.682 308.961 387.682 299.672C387.682 290.384 380.152 282.854 370.863 282.854C361.574 282.854 354.044 290.384 354.044 299.672C354.044 308.961 361.574 316.491 370.863 316.491Z" fill="#F5D491"/>
<path d="M150.495 172.762C159.783 172.762 167.313 165.232 167.313 155.944C167.313 146.655 159.783 139.125 150.495 139.125C141.206 139.125 133.676 146.655 133.676 155.944C133.676 165.232 141.206 172.762 150.495 172.762Z" fill="#2D82B7"/>
<path d="M104.21 243.579C113.498 243.579 121.028 236.049 121.028 226.761C121.028 217.472 113.498 209.942 104.21 209.942C94.9209 209.942 87.3909 217.472 87.3909 226.761C87.3909 236.049 94.9209 243.579 104.21 243.579Z" fill="#07004D"/>
<path d="M189.25 249.346C198.539 249.346 206.069 241.816 206.069 232.527C206.069 223.238 198.539 215.708 189.25 215.708C179.961 215.708 172.431 223.238 172.431 232.527C172.431 241.816 179.961 249.346 189.25 249.346Z" fill="black"/>
<path d="M144.413 316.491C153.702 316.491 161.232 308.961 161.232 299.672C161.232 290.384 153.702 282.854 144.413 282.854C135.124 282.854 127.594 290.384 127.594 299.672C127.594 308.961 135.124 316.491 144.413 316.491Z" fill="#42E2B8"/>
</svg>
